<?xml version="1.0" standalone="no"?>
<!DOCTYPE svg PUBLIC "-//W3C//DTD SVG 20010904//EN"
 "http://www.w3.org/TR/2001/REC-SVG-20010904/DTD/svg10.dtd">
<svg version="1.0" xmlns="http://www.w3.org/2000/svg"
 width="512.000000pt" height="512.000000pt" viewBox="0 0 512.000000 512.000000"
 preserveAspectRatio="xMidYMid meet">
<metadata>
Created by potrace 1.16, written by Peter Selinger 2001-2019
</metadata>
<g transform="translate(0.000000,512.000000) scale(0.100000,-0.100000)"
fill="#000000" stroke="none">
<path d="M2420 4520 c-171 -9 -288 -24 -466 -61 -340 -70 -779 -246 -1027
-412 l-90 -60 7 -141 c10 -197 32 -424 60 -627 29 -205 41 -335 39 -404 -2
-41 0 -45 7 -25 7 19 8 13 4 -25 -9 -91 69 -445 103 -471 21 -16 37 -18 28 -4
-3 6 3 10 15 10 14 0 19 4 14 13 -5 8 -4 9 3 2 6 -5 18 -39 28 -75 9 -36 34
-116 55 -177 21 -62 36 -113 33 -113 -3 0 -1 -6 4 -12 6 -7 13 -21 17 -32 5
-13 2 -17 -9 -13 -8 4 -17 2 -20 -4 -4 -5 -10 -7 -15 -4 -10 6 -2 -47 8 -55 4
-3 8 -12 10 -20 5 -24 116 -249 159 -323 34 -59 39 -72 29 -92 -6 -13 -14 -21
-18 -19 -4 3 -5 -5 -3 -17 12 -60 330 -389 515 -533 189 -146 577 -396 615
-396 18 0 99 40 230 113 462 257 786 522 1005 822 77 105 208 386 275 588 18
54 35 98 39 97 3 0 10 0 15 0 11 0 74 259 95 390 9 52 29 245 46 429 16 183
34 372 40 420 13 118 13 131 -6 131 -14 0 -15 22 -9 217 9 256 9 232 7 264 -2
21 -20 37 -114 93 -62 37 -187 104 -278 149 -91 45 -168 86 -172 91 -4 6 4 25
17 42 l24 31 -122 41 c-391 131 -810 191 -1197 172z m401 -90 c162 -16 343
-48 471 -82 115 -30 118 -31 123 -62 6 -29 12 -34 88 -59 105 -37 274 -109
357 -155 138 -75 282 -165 287 -179 12 -32 -33 -796 -68 -1133 -50 -495 -104
-735 -229 -1011 -100 -223 -185 -348 -342 -507 -113 -114 -200 -185 -376 -309
-187 -131 -586 -363 -625 -363 -22 0 -213 113 -352 208 -361 246 -565 471
-740 817 -125 245 -239 560 -294 812 -31 144 -76 434 -87 566 -7 72 -6 77 13
77 10 0 24 5 31 12 6 6 15 9 18 5 4 -4 18 -87 31 -184 30 -224 81 -481 128
-643 134 -459 344 -839 613 -1109 82 -83 95 -93 104 -77 8 15 -13 41 -129 159
-107 108 -159 172 -222 266 -78 119 -217 382 -225 427 -3 12 -13 39 -24 60
-33 64 -119 343 -146 470 -13 66 -29 162 -35 214 -22 188 -41 547 -41 757 l0
213 42 30 c46 34 63 32 30 -3 -27 -28 -27 -46 -7 -337 54 -784 124 -1137 311
-1581 155 -368 415 -648 849 -914 67 -41 128 -75 135 -75 26 0 314 170 470
278 360 249 552 446 677 697 85 169 155 395 202 655 32 175 27 161 58 149 18
-7 28 -6 33 1 9 14 27 187 40 380 6 80 17 163 24 185 10 26 20 147 30 355 9
173 18 341 21 372 l5 57 -83 50 c-213 129 -520 260 -740 318 -64 17 -107 33
-107 41 0 6 5 12 10 12 6 0 10 4 10 9 0 10 -214 47 -350 61 -52 5 -181 10
-285 10 -523 0 -1039 -140 -1487 -406 l-98 -58 0 -275 c0 -151 -2 -272 -5
-270 -2 3 -9 131 -14 285 -5 153 -13 286 -16 296 -8 21 63 76 206 157 301 170
692 284 1134 330 117 12 457 13 576 1z m13 -126 c291 -36 594 -124 872 -254
105 -49 309 -163 333 -185 13 -13 10 -122 -16 -532 l-6 -102 -72 -51 -72 -51
-7 -104 c-28 -429 -147 -974 -273 -1244 -119 -259 -277 -428 -580 -625 -96
-62 -365 -209 -407 -222 -19 -6 -19 -5 -7 10 23 28 6 28 -34 0 -25 -17 -46
-23 -61 -20 -40 10 -376 242 -472 326 -124 108 -213 217 -310 380 l-20 35 37
27 38 27 47 -68 c139 -204 296 -352 579 -545 122 -84 127 -89 127 -122 0 -32
2 -35 23 -29 35 11 282 145 395 216 150 93 298 207 373 286 129 137 265 365
332 559 43 124 101 373 121 519 21 153 40 485 32 572 l-6 72 48 35 c26 19 55
41 65 48 16 12 19 42 29 276 10 227 10 264 -2 276 -8 8 -58 38 -110 66 -282
153 -614 264 -970 326 -147 25 -539 31 -710 10 -349 -43 -660 -133 -972 -283
l-157 -76 -7 -65 c-4 -36 -3 -235 1 -441 4 -207 4 -374 1 -371 -8 9 -35 447
-43 692 l-6 216 84 55 c153 99 394 209 560 256 175 49 492 104 690 121 130 11
377 3 533 -16z m-166 -285 c327 -35 610 -141 937 -351 l130 -84 2 -124 3 -125
-53 -36 c-59 -42 -284 -227 -397 -328 -41 -37 -133 -116 -205 -176 -71 -60
-181 -154 -244 -210 -62 -55 -120 -104 -130 -110 -27 -17 -142 -115 -202 -173
l-57 -54 -93 67 c-52 37 -100 76 -107 87 -7 10 -18 16 -23 12 -5 -3 -8 -1 -7
4 2 5 -46 54 -107 107 -60 54 -121 108 -135 121 -14 12 -34 24 -44 26 -23 4
-285 273 -350 359 l-46 61 0 -84 1 -83 144 -124 c78 -68 219 -181 312 -250 93
-69 235 -179 316 -244 l146 -118 29 21 c37 27 58 19 37 -14 -8 -12 -28 -32
-45 -44 l-30 -22 -197 158 c-109 87 -282 222 -386 300 l-187 142 6 -58 c3 -31
10 -81 15 -111 14 -83 13 -90 -16 -86 -19 2 -24 -2 -21 -14 3 -9 12 -45 21
-81 61 -247 162 -470 323 -710 61 -91 114 -178 117 -195 l6 -30 -23 26 c-84
95 -172 204 -213 264 -102 152 -221 437 -266 638 -11 52 -15 58 -33 52 -12 -4
-44 -10 -72 -14 -29 -4 -59 -13 -68 -20 -19 -16 -17 -19 -45 94 -28 114 -58
297 -75 465 -14 136 -39 551 -34 555 19 16 131 81 193 113 108 54 183 85 355
148 164 60 165 67 5 25 -139 -37 -301 -98 -410 -154 l-84 -44 -6 28 c-11 47 5
97 36 120 51 36 291 146 389 178 133 43 282 78 392 90 51 6 107 13 123 15 69
8 283 5 373 -5z m1087 -1199 c-30 -316 -75 -556 -139 -742 -56 -159 -178 -330
-383 -534 -79 -79 -143 -148 -143 -155 0 -7 -3 -10 -6 -7 -14 14 38 82 151
199 177 183 290 361 349 548 33 105 81 338 101 496 15 119 36 417 30 423 -2 2
-18 -10 -35 -25 -31 -28 -34 -35 -52 -164 -35 -249 -107 -523 -176 -669 -110
-234 -501 -690 -729 -849 -60 -43 -41 -24 66 65 123 101 402 434 547 650 144
216 211 437 243 804 l9 105 89 83 88 82 3 -72 c2 -40 -4 -147 -13 -238z
m-2658 278 c-3 -8 -6 -5 -6 6 -1 11 2 17 5 13 3 -3 4 -12 1 -19z m2314 -420
c-46 -306 -146 -568 -313 -816 -68 -100 -210 -264 -300 -346 -97 -88 -237
-188 -252 -179 -6 3 -8 3 -4 -2 4 -4 0 -14 -9 -21 -19 -13 -42 -4 -142 54 -35
20 -40 27 -27 34 9 5 20 7 24 4 5 -3 9 1 9 8 0 16 -13 15 -42 -1 -16 -10 -28
-6 -70 24 -72 52 -155 135 -148 147 11 17 8 61 -4 61 -6 0 -14 3 -18 7 -4 4
-13 4 -20 2 -8 -3 -26 14 -45 40 -17 25 -27 46 -23 46 4 0 3 4 -3 8 -31 20
-123 189 -179 329 -35 85 -85 255 -85 283 1 8 22 -43 49 -115 59 -162 185
-415 206 -415 3 0 -4 18 -15 40 -11 22 -18 40 -16 40 2 0 33 -37 69 -82 121
-155 303 -317 455 -404 33 -19 33 -19 77 6 73 42 201 148 287 239 237 250 398
558 469 899 19 91 39 253 33 261 -2 2 -61 -48 -131 -110 -70 -63 -195 -173
-278 -244 -82 -72 -223 -196 -314 -277 -91 -81 -167 -145 -169 -143 -3 3 1 12
9 21 16 20 364 330 649 580 251 220 260 228 260 252 0 10 6 34 13 53 22 61 21
-129 -2 -283z m-2444 20 c-3 -7 -5 -2 -5 12 0 14 2 19 5 13 2 -7 2 -19 0 -25z
m981 -308 c150 -189 161 -204 177 -251 9 -23 14 -43 13 -44 -2 -2 -32 1 -68 6
-70 10 -149 7 -170 -6 -9 -5 -11 -4 -6 3 4 7 3 12 -2 12 -18 0 -134 353 -156
474 l-7 38 56 -48 c31 -27 105 -110 163 -184z m1949 158 c-3 -8 -6 -5 -6 6 -1
11 2 17 5 13 3 -3 4 -12 1 -19z m-722 -65 c-28 -164 -199 -506 -258 -515 -23
-4 -125 13 -216 35 l-54 13 224 200 c123 109 241 222 264 251 22 28 41 52 43
52 2 1 0 -16 -3 -36z m-1050 -862 c3 -5 2 -12 -3 -15 -5 -3 -9 1 -9 9 0 17 3
19 12 6z"/>
<path d="M3178 4293 c6 -2 18 -2 25 0 6 3 1 5 -13 5 -14 0 -19 -2 -12 -5z"/>
<path d="M2483 3963 c15 -2 37 -2 50 0 12 2 0 4 -28 4 -27 0 -38 -2 -22 -4z"/>
<path d="M2570 3953 c8 -3 17 -9 20 -12 15 -19 182 -95 220 -101 191 -30 278
-50 355 -80 17 -6 32 -11 35 -11 12 0 56 -12 65 -19 6 -4 26 -11 45 -16 44
-10 38 -8 88 -23 74 -21 67 -7 -20 41 -173 97 -413 178 -628 213 -91 14 -211
20 -180 8z"/>
<path d="M1540 3128 c0 -17 311 -313 475 -453 49 -42 163 -132 254 -201 163
-123 164 -124 185 -106 12 10 89 76 171 147 83 70 234 202 337 293 181 161
188 167 194 211 4 26 14 57 23 71 8 14 -12 0 -44 -30 -33 -31 -168 -150 -300
-265 -132 -115 -278 -242 -325 -283 -47 -41 -90 -76 -97 -79 -28 -11 -384 278
-850 691 -19 16 -23 17 -23 4z"/>
<path d="M2043 1750 c2 -13 9 -26 15 -28 16 -5 14 9 -4 33 -14 19 -14 19 -11
-5z"/>
<path d="M2079 1691 c14 -25 20 -27 17 -4 -2 9 -8 19 -15 21 -10 3 -10 0 -2
-17z"/>
<path d="M2240 1535 c13 -14 26 -25 28 -25 3 0 -5 11 -18 25 -13 14 -26 25
-28 25 -3 0 5 -11 18 -25z"/>
<path d="M2287 1485 c-9 -22 31 -65 56 -61 25 3 36 26 13 26 -9 0 -16 3 -16 8
0 4 -11 15 -24 24 -20 15 -25 15 -29 3z"/>
<path d="M1065 2259 c-4 -6 -5 -12 -2 -15 2 -3 7 2 10 11 7 17 1 20 -8 4z"/>
<path d="M2460 270 c37 -12 188 -12 195 0 4 6 -34 10 -107 9 -72 -1 -104 -4
-88 -9z"/>
</g>
</svg>